<?xml version="1.0"?>
<svg xmlns="http://www.w3.org/2000/svg" xmlns:xlink="http://www.w3.org/1999/xlink" xmlns:svgjs="http://svgjs.com/svgjs" version="1.1" width="512" height="512" x="0" y="0" viewBox="0 0 512 512" style="enable-background:new 0 0 512 512" xml:space="preserve" class=""><g transform="matrix(-1,0,0,1,511.99859619140625,0)"><script/>
<polygon xmlns="http://www.w3.org/2000/svg" style="" points="154.417,256 31.006,501.801 164.616,501.801 288.026,256 164.616,10.199 31.006,10.199 " fill="#444444" data-original="#8ae9ff" class=""/>
<path xmlns="http://www.w3.org/2000/svg" style="" d="M164.616,512H31.006c-3.538,0-6.822-1.834-8.681-4.845s-2.021-6.769-0.434-9.931L143.005,256  L21.892,14.776c-1.588-3.163-1.424-6.92,0.434-9.931S27.469,0,31.006,0h133.61c3.857,0,7.384,2.177,9.115,5.623l123.41,245.801  c1.446,2.879,1.446,6.274,0,9.154l-123.41,245.801C172.001,509.824,168.474,512,164.616,512z M47.539,491.602h110.785L276.615,256  L158.324,20.398H47.539l115.992,231.025c1.446,2.879,1.446,6.274,0,9.154L47.539,491.602z" fill="#333333" data-original="#248a9c" class=""/>
<polygon xmlns="http://www.w3.org/2000/svg" style="" points="347.384,256 223.973,501.801 357.583,501.801 480.993,256 357.583,10.199 223.973,10.199 " fill="#444444" data-original="#8ae9ff" class=""/>
<g xmlns="http://www.w3.org/2000/svg">
	<path style="" d="M357.583,512h-133.61c-3.538,0-6.822-1.834-8.681-4.845c-1.858-3.011-2.021-6.769-0.434-9.931   L335.971,256L214.858,14.776c-1.588-3.163-1.424-6.92,0.434-9.931C217.151,1.834,220.435,0,223.973,0h133.61   c3.857,0,7.384,2.177,9.115,5.623l123.41,245.801c1.446,2.879,1.446,6.274,0,9.154l-123.41,245.801   C364.967,509.824,361.44,512,357.583,512z M240.506,491.602h110.785L469.58,256L351.291,20.398H240.506l115.992,231.025   c1.446,2.879,1.446,6.274,0,9.154L240.506,491.602z" fill="#333333" data-original="#248a9c" class=""/>
	<path style="" d="M361.852,108.114c-3.735,0-7.331-2.059-9.122-5.625l-3.242-6.456   c-2.528-5.034-0.496-11.163,4.538-13.691c5.034-2.527,11.163-0.496,13.691,4.538l3.242,6.456   c2.528,5.034,0.496,11.163-4.538,13.691C364.953,107.764,363.39,108.114,361.852,108.114z" fill="#333333" data-original="#248a9c" class=""/>
	<path style="" d="M441.224,266.201c-3.735,0-7.332-2.059-9.122-5.625l-62.985-125.449   c-2.528-5.034-0.496-11.164,4.538-13.691c5.037-2.525,11.164-0.495,13.691,4.538l62.985,125.449   c2.528,5.034,0.496,11.164-4.538,13.691C444.323,265.852,442.762,266.201,441.224,266.201z" fill="#333333" data-original="#248a9c" class=""/>
</g>
<g xmlns="http://www.w3.org/2000/svg">
</g>
<g xmlns="http://www.w3.org/2000/svg">
</g>
<g xmlns="http://www.w3.org/2000/svg">
</g>
<g xmlns="http://www.w3.org/2000/svg">
</g>
<g xmlns="http://www.w3.org/2000/svg">
</g>
<g xmlns="http://www.w3.org/2000/svg">
</g>
<g xmlns="http://www.w3.org/2000/svg">
</g>
<g xmlns="http://www.w3.org/2000/svg">
</g>
<g xmlns="http://www.w3.org/2000/svg">
</g>
<g xmlns="http://www.w3.org/2000/svg">
</g>
<g xmlns="http://www.w3.org/2000/svg">
</g>
<g xmlns="http://www.w3.org/2000/svg">
</g>
<g xmlns="http://www.w3.org/2000/svg">
</g>
<g xmlns="http://www.w3.org/2000/svg">
</g>
<g xmlns="http://www.w3.org/2000/svg">
</g>
</g></svg>
