<?xml version="1.0" encoding="UTF-8"?>
<!DOCTYPE svg PUBLIC "-//W3C//DTD SVG 1.1//EN"
  "http://www.w3.org/Graphics/SVG/1.1/DTD/svg11.dtd">
<!-- Created with Inkpad (http://www.taptrix.com/) --><svg xmlns:inkpad="http://taptrix.com/inkpad/svg_extensions" height="999pt" xmlns:xlink="http://www.w3.org/1999/xlink" xmlns="http://www.w3.org/2000/svg" width="1000pt" version="1.1" viewBox="0,0,1000,999">
<defs/>
<g id="Untitled" inkpad:layerName="Untitled">
<path d="M328.432+544.115C328.432+558.271+331.922+571.625+338.078+583.33C352.195+610.154+380.332+628.428+412.744+628.428L538.234+628.428L538.234+806.859L600.979+806.859L604.193+767.645L617.33+607.742C620.135+573.486+593.074+544.115+558.703+544.115L328.432+544.115L328.432+544.115Z" opacity="1" fill="#616161"/>
<path d="M328.432+544.115C328.432+558.271+331.922+571.625+338.078+583.33L469.607+583.33C491.266+583.33+508.822+565.773+508.822+544.115L508.822+544.115L328.432+544.115Z" opacity="1" fill="#424242"/>
<path d="M328.432+328.43L328.432+544.115L469.607+544.115L469.607+230.389L426.471+230.389C411.705+230.389+397.705+233.664+385.156+239.506C351.646+255.096+328.432+289.057+328.432+328.43Z" opacity="1" fill="#f4511e"/>
<path d="M985.295+865.684C985.295+790.963+924.723+730.389+850+730.389C775.277+730.389+714.705+790.961+714.705+865.684L985.295+865.684Z" opacity="1" fill="#b0bec5"/>
<path d="M945.619+865.684C947.186+872.629+948.039+879.84+948.039+887.252C948.039+941.311+904.059+985.291+850+985.291C795.941+985.291+751.961+941.311+751.961+887.252C751.961+879.84+752.814+872.629+754.381+865.684L945.619+865.684Z" opacity="1" fill="#616161"/>
<path d="M882.717+865.684C886.813+871.877+889.215+879.287+889.215+887.252C889.215+908.875+871.623+926.467+850+926.467C828.377+926.467+810.785+908.875+810.785+887.252C810.785+879.285+813.188+871.877+817.283+865.684L882.717+865.684Z" opacity="1" fill="#d8d7da"/>
<path d="M355.424+865.684C356.99+872.629+357.844+879.84+357.844+887.252C357.844+941.311+313.863+985.291+259.805+985.291C205.746+985.291+161.766+941.311+161.766+887.252C161.766+879.84+162.619+872.629+164.186+865.684L355.424+865.684Z" opacity="1" fill="#616161"/>
<path d="M292.521+865.684C296.617+871.877+299.02+879.287+299.02+887.252C299.02+908.875+281.428+926.467+259.805+926.467C238.182+926.467+220.59+908.875+220.59+887.252C220.59+879.285+222.992+871.877+227.088+865.684L292.521+865.684Z" opacity="1" fill="#d8d7da"/>
<path d="M642.432+381.115L745.039+726.369L757.195+767.271C779.234+746.486+808.234+733.037+840.352+730.762L828.803+692.467L744.922+414.135C736.373+382.801+704.039+364.311+672.707+372.859L642.432+381.115Z" opacity="1" fill="#f4511e"/>
<path d="M826.471+395.096C791.818+395.096+763.727+423.188+763.727+457.84C763.727+492.492+791.818+520.586+826.471+520.586L826.471+395.096Z" opacity="1" fill="#fdd844"/>
<path d="M538.234+767.645L538.234+806.859L600.98+806.859L604.195+767.645L538.234+767.645Z" opacity="1" fill="#424242"/>
<path d="M424.51+806.859L424.51+865.684L646.078+865.684L726.922+803.057L732.412+798.801C739.078+787.096+747.451+776.467+757.197+767.271L741.922+715.859L708.471+740.957L620.588+806.859L424.51+806.859L424.51+806.859Z" opacity="1" fill="#b0bec5"/>
<path d="M104.902+746.076L104.902+865.684L424.51+865.684L424.51+628.43L222.549+628.43C190.273+628.43+161.02+641.43+139.783+662.469C127.313+674.822+117.588+689.939+111.607+706.861C107.254+719.135+104.902+732.33+104.902+746.076Z" opacity="1" fill="#f4511e"/>
<path d="M139.686+669.859C141.078+713.311+174.764+746.074+218.039+746.074L346.078+746.074C376.176+746.074+403.686+734.701+424.51+716.016L424.51+628.428L222.549+628.428C190.273+628.428+161.02+641.428+139.783+662.467C139.627+664.898+139.607+667.369+139.686+669.859Z" opacity="1" fill="#d84315"/>
<path d="M218.043+706.859L346.078+706.859C389.395+706.859+424.51+671.744+424.51+628.428L424.51+628.428L222.549+628.428C219.988+628.428+217.445+628.51+214.924+628.67C164.859+631.871+167.877+706.859+218.043+706.859Z" opacity="1" fill="#b0bec5"/>
<path d="M269.607+451.961L14.7051+451.961L14.7051+451.961L14.7051+628.432L14.7051+628.432L269.607+628.432L269.607+628.432L269.607+451.961L269.607+451.961Z" opacity="1" fill="#f4511e"/>
<path d="M415.713+259.313C404.611+254.334+394.264+247.662+385.156+239.506C397.705+233.662+411.705+230.389+426.471+230.389L469.607+230.389L469.607+242.604L469.607+269.447L469.607+526.447C424.902+517.35+391.176+477.723+391.176+430.389L391.176+312.742C391.176+291.406+400.705+272.266+415.713+259.313Z" opacity="1" fill="#d84315"/>
<path d="M407.49+206.605C419.256+218.723+434.902+227.057+452.432+229.586C456.117+230.115+459.883+230.391+463.727+230.391C503.727+230.391+536.727+200.449+541.551+161.764C541.943+158.549+542.158+155.273+542.158+151.959C542.158+141.547+540.119+131.625+536.434+122.547L455.885+122.547L455.885+148.723C455.883+177.645+435+201.684+407.49+206.605Z" opacity="1" fill="#fdd8a8"/>
<path d="M407.49+206.605C419.256+218.723+434.902+227.057+452.432+229.586C474.785+214.232+490.49+189.861+494.236+161.762L541.551+161.762C541.943+158.547+542.158+155.271+542.158+151.957C542.158+141.545+540.119+131.623+536.434+122.545L455.885+122.545L455.885+148.721C455.883+177.645+435+201.684+407.49+206.605Z" opacity="1" fill="#ffc477"/>
<g opacity="1">
<path d="M338.234+207.541C329.945+188.906+325.693+168.096+326.588+146.225C329.475+75.6992+386.42+18.293+456.92+14.8672C525.48+11.5371+569.363+58.8359+583.334+122.545L455.883+122.545L455.883+148.715C455.883+181.203+429.547+207.539+397.059+207.539L338.234+207.539L338.234+207.541Z" opacity="1" fill="#f4511e"/>
<path d="M600.98+489.213L489.215+489.213C456.727+489.213+430.391+462.877+430.391+430.389L430.391+312.742C430.391+295.414+444.436+281.369+461.764+281.369L461.764+281.369C479.092+281.369+493.137+295.414+493.137+312.742L493.137+426.467L600.98+426.467L600.98+489.213Z" opacity="1" fill="#f4511e"/>
</g>
<path d="M600.98+426.469L659.805+426.469C677.133+426.469+691.178+440.514+691.178+457.842L691.178+457.842C691.178+475.17+677.133+489.215+659.805+489.215L600.98+489.215C600.98+489.215+600.98+426.469+600.98+426.469Z" opacity="1" fill="#fdd8a8"/>
<path d="M269.607+451.961L14.7051+451.961L14.7051+451.961L14.7051+491.176L14.7051+491.176L269.607+491.176L269.607+491.176L269.607+451.961L269.607+451.961Z" opacity="1" fill="#d84315"/>
<path d="M14.7051+402.939C14.7051+386.697+27.873+373.527+44.1172+373.527L240.195+373.527C256.438+373.527+269.607+386.695+269.607+402.939L269.607+451.959L14.7051+451.959C14.7051+451.959+14.7051+402.939+14.7051+402.939Z" opacity="1" fill="#f4511e"/>
<path d="M745.039+726.369L757.195+767.271C779.234+746.486+808.234+733.037+840.352+730.762L828.803+692.467C797.607+696.252+768.941+708.311+745.039+726.369Z" opacity="1" fill="#d84315"/>
<path d="M708.471+740.959L726.922+803.057L732.412+798.801C739.078+787.096+747.451+776.467+757.197+767.271L741.922+715.859L708.471+740.959Z" opacity="1" fill="#90a4ae"/>
<path d="M44.1172+358.82L240.195+358.82C264.523+358.82+284.313+378.613+284.313+402.938L284.313+613.723L342.402+613.723C327.953+599.123+318.002+580.066+314.824+558.82L313.727+558.82L313.727+558.82L313.727+558.82L313.727+328.43C313.727+279.545+345.008+237.846+388.598+222.25L328.684+222.25L324.801+213.521C315.271+192.096+310.93+169.252+311.896+145.627C315.08+67.8438+378.469+3.959+456.209+0.181649C526.59-3.21484+580.826+42.4473+597.701+119.398L601.617+137.254L555.684+137.254C556.457+142.094+556.865+146.998+556.865+151.959C556.865+196.24+525.795+233.375+484.316+242.775L484.316+272.584C498.346+280.492+507.846+295.525+507.846+312.744L507.846+411.764L636.207+411.764L624.059+370.883L668.842+358.674C687.789+353.508+707.617+356.027+724.67+365.773C741.662+375.484+753.873+391.215+759.07+410.076L761.016+416.529C774.754+394.836+798.955+380.391+826.48+380.391L841.18+380.391L841.18+535.293L826.475+535.293C815.17+535.293+804.436+532.838+794.744+528.465L851.172+715.713C933.34+716.344+1000+783.361+1000+865.684L1000+880.389L962.516+880.389C962.656+882.678+962.744+884.967+962.744+887.252C962.744+949.42+912.168+999.996+850+999.996C787.832+999.996+737.256+949.42+737.256+887.252C737.256+884.967+737.344+882.678+737.484+880.389L700+880.389L700+865.684C700+857.238+700.736+848.969+702.084+840.898L651.107+880.389L372.318+880.389L372.318+880.389L372.318+880.389C372.459+882.678+372.547+884.967+372.547+887.252C372.547+949.42+321.971+999.996+259.803+999.996C197.635+999.996+147.059+949.42+147.059+887.252C147.059+884.967+147.146+882.678+147.287+880.389L90.1953+880.389L90.1953+746.074C90.1953+730.922+92.7363+716.074+97.7402+701.963C106.084+678.334+120.756+658.191+139.43+643.133L0+643.133L0+402.938C0+378.613+19.791+358.82+44.1172+358.82ZM811.766+412.104C792.445+418.328+778.432+436.48+778.432+457.84C778.432+479.199+792.445+497.352+811.766+503.576L811.766+412.104ZM240.195+388.232L44.1172+388.232C36.0078+388.232+29.4121+394.828+29.4121+402.937L29.4121+437.252L88.2364+437.252L88.2364+412.742L117.648+412.742L117.648+437.252L156.863+437.252L156.863+412.742L186.275+412.742L186.275+437.252L254.902+437.252L254.902+402.937C254.902+394.828+248.307+388.232+240.195+388.232ZM216.693+643.32C216.27+643.346+215.844+643.365+215.422+643.396C198.783+644.686+193.242+657.479+193.58+668.141C193.934+679.217+200.553+692.154+218.041+692.154L346.076+692.154C376.154+692.154+401.434+671.207+408.088+643.135L408.088+643.135L218.639+643.213C216.697+643.211+218.641+643.211+216.693+643.32ZM439.215+792.154L523.529+792.154L523.529+643.135L439.215+643.135L439.215+792.154ZM412.744+613.723L412.744+613.723L552.939+613.723L552.939+792.154L587.43+792.154L602.666+606.549C603.688+594.117+599.596+582.219+591.145+573.047C582.693+563.873+571.17+558.822+558.697+558.822L344.699+558.822L344.699+558.822C351.469+590.164+379.408+613.723+412.744+613.723ZM659.805+503.92L489.217+503.92C487.568+503.92+485.936+503.846+484.314+503.738L484.314+529.41L558.701+529.41C579.188+529.41+598.896+538.051+612.779+553.117C626.662+568.186+633.66+588.535+631.984+608.955L617.027+791.15L724.91+710.238L663.545+503.754C662.309+503.853+661.063+503.92+659.805+503.92ZM343.137+328.43L343.137+529.41L454.902+529.41L454.902+495.395C431.602+483.045+415.688+458.547+415.688+430.391L415.688+312.744C415.688+289.668+432.738+270.504+454.902+267.18L454.902+245.098L426.471+245.098C380.52+245.096+343.137+282.479+343.137+328.43ZM457.633+29.5566C394.957+32.6016+343.848+84.1113+341.281+146.828C340.631+162.715+342.949+178.15+348.182+192.838L397.059+192.838C399.33+192.838+401.563+192.666+403.74+192.332L404.893+192.127C406.182+191.896+407.445+191.607+408.689+191.271C408.756+191.254+408.82+191.234+408.887+191.215C410.061+190.891+411.215+190.52+412.344+190.105C412.525+190.039+412.703+189.963+412.885+189.893C413.729+189.57+414.555+189.215+415.371+188.844C415.877+188.613+416.377+188.373+416.871+188.123C417.424+187.846+417.967+187.557+418.504+187.258C419.537+186.682+420.545+186.068+421.525+185.412C421.59+185.369+421.656+185.33+421.719+185.287C424.647+183.305+427.324+180.98+429.697+178.373L429.699+178.371C430.631+177.346+431.516+176.275+432.348+175.166C432.369+175.137+432.393+175.109+432.414+175.08C433.621+173.465+434.717+171.76+435.697+169.986C435.965+169.5+436.221+169.008+436.471+168.512C436.781+167.896+437.076+167.273+437.359+166.643C437.639+166.014+437.906+165.377+438.158+164.734C438.32+164.318+438.48+163.902+438.631+163.482C438.934+162.631+439.207+161.768+439.459+160.893C439.541+160.604+439.627+160.318+439.703+160.027C439.973+159.012+440.201+157.982+440.397+156.941C440.443+156.695+440.486+156.443+440.529+156.195C440.715+155.104+440.869+154+440.973+152.883C440.99+152.705+440.998+152.525+441.014+152.348C441.111+151.15+441.174+149.941+441.174+148.723L441.174+107.844L564.072+107.844L564.072+107.844C546.807+56.0586+508.021+27.1289+457.633+29.5566ZM527.451+151.959C527.451+146.967+526.877+142.047+525.738+137.254L470.59+137.254L470.59+148.721C470.59+150.17+470.537+151.605+470.453+153.035C470.426+153.5+470.383+153.959+470.348+154.42C470.273+155.387+470.186+156.352+470.072+157.309C470.01+157.842+469.943+158.375+469.869+158.904C469.746+159.791+469.602+160.672+469.447+161.547C469.354+162.086+469.266+162.627+469.156+163.162C468.967+164.113+468.746+165.055+468.521+165.992C468.281+166.992+468.014+167.98+467.732+168.963C467.559+169.572+467.391+170.186+467.201+170.789C466.941+171.613+466.658+172.424+466.371+173.236C466.23+173.633+466.09+174.029+465.943+174.42C465.604+175.332+465.248+176.234+464.875+177.127C464.805+177.295+464.73+177.463+464.658+177.631C459.004+190.865+449.592+202.188+437.582+210.107C445.687+213.762+454.551+215.684+463.727+215.684C498.863+215.684+527.451+187.098+527.451+151.959ZM478.432+441.174L478.432+312.742C478.432+303.553+470.955+296.076+461.766+296.076C452.576+296.076+445.1+303.553+445.1+312.742L445.1+430.389C445.1+454.715+464.891+474.506+489.217+474.506L659.805+474.506C668.994+474.506+676.471+467.029+676.471+457.84C676.471+448.65+668.994+441.174+659.805+441.174C659.805+441.174+478.432+441.174+478.432+441.174ZM730.848+418.383L730.74+418.008C727.641+406.637+720.299+397.156+710.068+391.311C699.838+385.463+687.941+383.947+676.572+387.049L660.816+391.344L667.055+412.338C689.029+415.826+705.883+434.898+705.883+457.84C705.883+471.359+700.029+483.535+690.727+491.973L750+691.418L750+691.418L752.52+699.896L765.062+742.1C765.277+741.951+765.504+741.818+765.719+741.672C767.1+740.73+768.512+739.834+769.924+738.941C770.521+738.564+771.104+738.164+771.707+737.799C786.701+728.586+803.43+721.949+821.279+718.475L730.848+418.383ZM766.666+887.252C766.666+933.203+804.049+970.586+850+970.586C895.951+970.586+933.334+933.201+933.334+887.252C933.334+884.969+933.238+882.68+933.045+880.389L903.457+880.389C903.748+882.656+903.922+884.943+903.922+887.252C903.922+916.982+879.734+941.174+850+941.174C820.266+941.174+796.078+916.984+796.078+887.252C796.078+884.943+796.252+882.656+796.543+880.389L766.955+880.389C766.764+882.68+766.666+884.971+766.666+887.252ZM825.49+887.252C825.49+900.768+836.484+911.762+850+911.762C863.516+911.762+874.51+900.768+874.51+887.252C874.51+884.912+874.174+882.605+873.523+880.389L826.479+880.389C825.826+882.605+825.49+884.91+825.49+887.252ZM730.305+850.978L730.305+850.978L969.695+850.978L969.695+850.978L969.695+850.978C962.422+791.395+911.518+745.096+850+745.096C848.121+745.096+846.256+745.141+844.396+745.227L841.379+745.439C822.477+746.775+804.182+752.619+788.043+762.283C787.967+762.33+787.887+762.373+787.811+762.42C786.736+763.064+785.684+763.746+784.629+764.426C784.127+764.752+783.621+765.066+783.123+765.398C782.393+765.887+781.674+766.396+780.953+766.9C780.156+767.459+779.359+768.012+778.576+768.588C778.098+768.941+777.629+769.305+777.154+769.664C776.16+770.42+775.172+771.18+774.201+771.967C773.896+772.211+773.6+772.465+773.297+772.715C772.197+773.623+771.109+774.545+770.041+775.492C769.828+775.682+769.617+775.875+769.404+776.066C768.227+777.127+767.061+778.203+765.926+779.309C765.898+779.334+765.871+779.361+765.846+779.387C764.584+780.617+763.35+781.875+762.143+783.158C762.139+783.162+762.137+783.164+762.133+783.168C757.32+788.287+752.959+793.83+749.092+799.728C748.939+799.963+748.787+800.199+748.635+800.434C747.871+801.615+747.131+802.812+746.41+804.021C746.215+804.35+746.016+804.676+745.824+805.008C737.744+818.83+732.33+834.385+730.305+850.978L730.305+850.978ZM439.215+850.978L641.049+850.978L721.143+788.932C721.299+788.668+721.475+788.42+721.633+788.158C721.973+787.598+722.336+787.055+722.684+786.5C726.176+780.895+730.018+775.523+734.211+770.432C734.244+770.391+734.275+770.35+734.311+770.309C735.635+768.705+737.008+767.141+738.398+765.592C738.686+765.271+738.963+764.949+739.252+764.633C739.715+764.127+740.148+763.598+740.617+763.098L733.842+740.303L625.488+821.568L625.488+821.568L439.213+821.568L439.213+821.568L439.213+850.978L439.215+850.978ZM176.471+887.252C176.471+933.203+213.854+970.586+259.805+970.586C305.756+970.586+343.139+933.203+343.139+887.252C343.139+884.969+343.043+882.68+342.85+880.389L313.262+880.389C313.553+882.656+313.727+884.943+313.727+887.252C313.727+916.982+289.539+941.174+259.805+941.174C230.072+941.174+205.883+916.984+205.883+887.252C205.883+884.943+206.057+882.656+206.348+880.389L176.758+880.389C176.566+882.68+176.471+884.971+176.471+887.252ZM235.295+887.252C235.295+900.768+246.289+911.762+259.805+911.762C273.32+911.762+284.314+900.768+284.314+887.252C284.314+884.912+283.979+882.605+283.328+880.389L236.283+880.389C235.629+882.605+235.295+884.91+235.295+887.252ZM119.607+850.978L409.805+850.978L409.805+850.978L409.805+696.262C393.131+711.936+370.715+721.568+346.08+721.568L218.045+721.568C183.785+721.568+165.02+695.162+164.188+669.08C164.104+666.428+164.217+663.762+164.506+661.107C146.834+673.174+132.916+690.689+125.471+711.775C121.582+722.74+119.609+734.281+119.609+746.076L119.607+850.978M254.902+613.723L254.902+613.723L254.902+466.664L186.275+466.664L186.275+491.174L156.863+491.174L156.863+466.664L117.648+466.664L117.648+491.174L88.2363+491.174L88.2363+466.664L29.4121+466.664L29.4121+613.723L254.902+613.723Z" opacity="1" fill="#000000"/>
<path d="M57.8437+703.922L0.980437+703.922L0.980437+703.922L0.980437+733.334L0.980437+733.334L57.8437+733.334L57.8437+733.334L57.8437+703.922L57.8437+703.922Z" opacity="1" fill="#000000"/>
<path d="M57.8437+777.451L0.980437+777.451L0.980437+777.451L0.980437+806.863L0.980437+806.863L57.8437+806.863L57.8437+806.863L57.8437+777.451L57.8437+777.451Z" opacity="1" fill="#000000"/>
<path d="M57.8437+850.98L0.980437+850.98L0.980437+850.98L0.980437+880.393L0.980437+880.393L57.8437+880.393L57.8437+880.393L57.8437+850.98L57.8437+850.98Z" opacity="1" fill="#000000"/>
<g opacity="1">
<path d="M889.41+818.168L908.213+795.551C891.887+781.98+871.213+774.508+850.002+774.508L850.002+803.92C864.359+803.92+878.355+808.98+889.41+818.168Z" opacity="1" fill="#ffffff"/>
<path d="M251.961+821.566L281.373+821.566L281.373+792.154L251.961+792.154L251.961+821.566ZM310.785+821.566L380.393+821.566L380.393+748.037L350.98+748.037L350.98+792.154L310.785+792.154L310.785+821.566Z" opacity="1" fill="#ffffff"/>
<path d="M178.432+746.078L149.02+746.078L149.02+746.078L149.02+791.176L149.02+791.176L178.432+791.176L178.432+791.176L178.432+746.078L178.432+746.078Z" opacity="1" fill="#ffffff"/>
<path d="M394.117+448.039L364.705+448.039L364.705+448.039L364.705+504.902L364.705+504.902L394.117+504.902L394.117+504.902L394.117+448.039L394.117+448.039Z" opacity="1" fill="#ffffff"/>
<path d="M58.8242+584.311L122.549+584.311L122.549+554.898L88.2344+554.898L88.2344+520.586L58.8242+520.586L58.8242+584.311Z" opacity="1" fill="#ffffff"/>
<path d="M400.041+149.547L400.057+149.23C400.498+138.461+403.777+127.871+409.545+118.607L384.574+103.066C376.156+116.594+371.354+132.082+370.678+147.865L370.664+148.23L385.705+148.732L400.041+149.547Z" opacity="1" fill="#ffffff"/>
<path d="M502.941+58.8203L436.275+58.8203L436.275+58.8203L436.275+88.2324L436.275+88.2324L502.941+88.2324L502.941+88.2324L502.941+58.8203L502.941+58.8203Z" opacity="1" fill="#ffffff"/>
</g>
</g>
</svg>
