<?xml version="1.0" encoding="UTF-8"?>
<!DOCTYPE svg PUBLIC "-//W3C//DTD SVG 1.1//EN"
  "http://www.w3.org/Graphics/SVG/1.1/DTD/svg11.dtd">
<!-- Created with Inkpad (http://www.taptrix.com/) --><svg xmlns:inkpad="http://taptrix.com/inkpad/svg_extensions" height="999pt" xmlns:xlink="http://www.w3.org/1999/xlink" xmlns="http://www.w3.org/2000/svg" width="1000pt" version="1.1" viewBox="0,0,1000,999">
<defs/>
<g id="Untitled" inkpad:layerName="Untitled">
<path d="M671.568+544.115C671.568+558.271+668.078+571.625+661.922+583.33C647.805+610.154+619.668+628.428+587.256+628.428L461.766+628.428L461.766+806.859L399.021+806.859L395.807+767.645L382.67+607.742C379.865+573.486+406.926+544.115+441.297+544.115L671.568+544.115L671.568+544.115Z" opacity="1" fill="#616161"/>
<path d="M671.568+544.115C671.568+558.271+668.078+571.625+661.922+583.33L530.393+583.33C508.734+583.33+491.178+565.773+491.178+544.115L491.178+544.115L671.568+544.115Z" opacity="1" fill="#424242"/>
<path d="M671.568+328.43L671.568+544.115L530.393+544.115L530.393+230.389L573.529+230.389C588.295+230.389+602.295+233.664+614.844+239.506C648.354+255.096+671.568+289.057+671.568+328.43Z" opacity="1" fill="#f4511e"/>
<path d="M14.705+865.684C14.705+790.963+75.277+730.389+150+730.389C224.723+730.389+285.295+790.961+285.295+865.684L14.705+865.684Z" opacity="1" fill="#b0bec5"/>
<path d="M54.381+865.684C52.814+872.629+51.961+879.84+51.961+887.252C51.961+941.311+95.941+985.291+150+985.291C204.059+985.291+248.039+941.311+248.039+887.252C248.039+879.84+247.186+872.629+245.619+865.684L54.381+865.684Z" opacity="1" fill="#616161"/>
<path d="M117.283+865.684C113.187+871.877+110.785+879.287+110.785+887.252C110.785+908.875+128.377+926.467+150+926.467C171.623+926.467+189.215+908.875+189.215+887.252C189.215+879.285+186.812+871.877+182.717+865.684L117.283+865.684Z" opacity="1" fill="#d8d7da"/>
<path d="M644.576+865.684C643.01+872.629+642.156+879.84+642.156+887.252C642.156+941.311+686.137+985.291+740.195+985.291C794.254+985.291+838.234+941.311+838.234+887.252C838.234+879.84+837.381+872.629+835.814+865.684L644.576+865.684Z" opacity="1" fill="#616161"/>
<path d="M707.479+865.684C703.383+871.877+700.98+879.287+700.98+887.252C700.98+908.875+718.572+926.467+740.195+926.467C761.818+926.467+779.41+908.875+779.41+887.252C779.41+879.285+777.008+871.877+772.912+865.684L707.479+865.684Z" opacity="1" fill="#d8d7da"/>
<path d="M357.568+381.115L254.961+726.369L242.805+767.271C220.766+746.486+191.766+733.037+159.648+730.762L171.197+692.467L255.078+414.135C263.627+382.801+295.961+364.311+327.293+372.859L357.568+381.115Z" opacity="1" fill="#f4511e"/>
<path d="M173.529+395.096C208.182+395.096+236.273+423.188+236.273+457.84C236.273+492.492+208.182+520.586+173.529+520.586L173.529+395.096Z" opacity="1" fill="#fdd844"/>
<path d="M461.766+767.645L461.766+806.859L399.02+806.859L395.805+767.645L461.766+767.645Z" opacity="1" fill="#424242"/>
<path d="M575.49+806.859L575.49+865.684L353.922+865.684L273.078+803.057L267.588+798.801C260.922+787.096+252.549+776.467+242.803+767.271L258.078+715.859L291.529+740.957L379.412+806.859L575.49+806.859L575.49+806.859Z" opacity="1" fill="#b0bec5"/>
<path d="M895.098+746.076L895.098+865.684L575.49+865.684L575.49+628.43L777.451+628.43C809.727+628.43+838.98+641.43+860.217+662.469C872.687+674.822+882.412+689.939+888.393+706.861C892.746+719.135+895.098+732.33+895.098+746.076Z" opacity="1" fill="#f4511e"/>
<path d="M860.314+669.859C858.922+713.311+825.236+746.074+781.961+746.074L653.922+746.074C623.824+746.074+596.314+734.701+575.49+716.016L575.49+628.428L777.451+628.428C809.727+628.428+838.98+641.428+860.217+662.467C860.373+664.898+860.393+667.369+860.314+669.859Z" opacity="1" fill="#d84315"/>
<path d="M781.957+706.859L653.922+706.859C610.605+706.859+575.49+671.744+575.49+628.428L575.49+628.428L777.451+628.428C780.012+628.428+782.555+628.51+785.076+628.67C835.141+631.871+832.123+706.859+781.957+706.859Z" opacity="1" fill="#b0bec5"/>
<path d="M730.393+451.961L985.295+451.961L985.295+451.961L985.295+628.432L985.295+628.432L730.393+628.432L730.393+628.432L730.393+451.961L730.393+451.961Z" opacity="1" fill="#f4511e"/>
<path d="M584.287+259.313C595.389+254.334+605.736+247.662+614.844+239.506C602.295+233.662+588.295+230.389+573.529+230.389L530.393+230.389L530.393+242.604L530.393+269.447L530.393+526.447C575.098+517.35+608.824+477.723+608.824+430.389L608.824+312.742C608.824+291.406+599.295+272.266+584.287+259.313Z" opacity="1" fill="#d84315"/>
<path d="M592.51+206.605C580.744+218.723+565.098+227.057+547.568+229.586C543.883+230.115+540.117+230.391+536.273+230.391C496.273+230.391+463.273+200.449+458.449+161.764C458.057+158.549+457.842+155.273+457.842+151.959C457.842+141.547+459.881+131.625+463.566+122.547L544.115+122.547L544.115+148.723C544.117+177.645+565+201.684+592.51+206.605Z" opacity="1" fill="#fdd8a8"/>
<path d="M592.51+206.605C580.744+218.723+565.098+227.057+547.568+229.586C525.215+214.232+509.51+189.861+505.764+161.762L458.449+161.762C458.057+158.547+457.842+155.271+457.842+151.957C457.842+141.545+459.881+131.623+463.566+122.545L544.115+122.545L544.115+148.721C544.117+177.645+565+201.684+592.51+206.605Z" opacity="1" fill="#ffc477"/>
<g opacity="1">
<path d="M661.766+207.541C670.055+188.906+674.307+168.096+673.412+146.225C670.525+75.6992+613.58+18.293+543.08+14.8672C474.52+11.5371+430.637+58.8359+416.666+122.545L544.117+122.545L544.117+148.715C544.117+181.203+570.453+207.539+602.941+207.539L661.766+207.539L661.766+207.541Z" opacity="1" fill="#f4511e"/>
<path d="M399.02+489.213L510.785+489.213C543.273+489.213+569.609+462.877+569.609+430.389L569.609+312.742C569.609+295.414+555.564+281.369+538.236+281.369L538.236+281.369C520.908+281.369+506.863+295.414+506.863+312.742L506.863+426.467L399.02+426.467L399.02+489.213Z" opacity="1" fill="#f4511e"/>
</g>
<path d="M399.02+426.469L340.195+426.469C322.867+426.469+308.822+440.514+308.822+457.842L308.822+457.842C308.822+475.17+322.867+489.215+340.195+489.215L399.02+489.215L399.02+426.469Z" opacity="1" fill="#fdd8a8"/>
<path d="M730.393+451.961L985.295+451.961L985.295+451.961L985.295+491.176L985.295+491.176L730.393+491.176L730.393+491.176L730.393+451.961L730.393+451.961Z" opacity="1" fill="#d84315"/>
<path d="M985.295+402.939C985.295+386.697+972.127+373.527+955.883+373.527L759.805+373.527C743.562+373.527+730.393+386.695+730.393+402.939L730.393+451.959L985.295+451.959L985.295+402.939Z" opacity="1" fill="#f4511e"/>
<path d="M254.961+726.369L242.805+767.271C220.766+746.486+191.766+733.037+159.648+730.762L171.197+692.467C202.393+696.252+231.059+708.311+254.961+726.369Z" opacity="1" fill="#d84315"/>
<path d="M291.529+740.959L273.078+803.057L267.588+798.801C260.922+787.096+252.549+776.467+242.803+767.271L258.078+715.859L291.529+740.959Z" opacity="1" fill="#90a4ae"/>
<path d="M955.883+358.82L759.805+358.82C735.477+358.82+715.687+378.613+715.687+402.938L715.687+613.723L657.598+613.723C672.047+599.123+681.998+580.066+685.176+558.82L686.273+558.82L686.273+558.82L686.273+558.82L686.273+328.43C686.273+279.545+654.992+237.846+611.402+222.25L671.316+222.25L675.199+213.521C684.729+192.096+689.07+169.252+688.104+145.627C684.92+67.8438+621.531+3.959+543.791+0.181649C473.41-3.21484+419.174+42.4473+402.299+119.398L398.383+137.254L444.316+137.254C443.543+142.094+443.135+146.998+443.135+151.959C443.135+196.24+474.205+233.375+515.684+242.775L515.684+272.584C501.654+280.492+492.154+295.525+492.154+312.744L492.154+411.764L363.793+411.764L375.941+370.883L331.158+358.674C312.211+353.508+292.383+356.027+275.33+365.773C258.338+375.484+246.127+391.215+240.93+410.076L238.984+416.529C225.246+394.836+201.045+380.391+173.52+380.391L158.82+380.391L158.82+535.293L173.525+535.293C184.83+535.293+195.564+532.838+205.256+528.465L148.828+715.713C66.66+716.344+0+783.361+0+865.684L0+880.389L37.484+880.389C37.344+882.678+37.256+884.967+37.256+887.252C37.256+949.42+87.832+999.996+150+999.996C212.168+999.996+262.744+949.42+262.744+887.252C262.744+884.967+262.656+882.678+262.516+880.389L300+880.389L300+865.684C300+857.238+299.264+848.969+297.916+840.898L348.893+880.389L627.682+880.389L627.682+880.389L627.682+880.389C627.541+882.678+627.453+884.967+627.453+887.252C627.453+949.42+678.029+999.996+740.197+999.996C802.365+999.996+852.941+949.42+852.941+887.252C852.941+884.967+852.854+882.678+852.713+880.389L909.805+880.389L909.805+746.074C909.805+730.922+907.264+716.074+902.26+701.963C893.916+678.334+879.244+658.191+860.57+643.133L1000+643.133L1000+402.938C1000+378.613+980.209+358.82+955.883+358.82ZM188.234+412.104C207.555+418.328+221.568+436.48+221.568+457.84C221.568+479.199+207.555+497.352+188.234+503.576L188.234+412.104ZM759.805+388.232L955.883+388.232C963.992+388.232+970.588+394.828+970.588+402.937L970.588+437.252L911.764+437.252L911.764+412.742L882.352+412.742L882.352+437.252L843.137+437.252L843.137+412.742L813.725+412.742L813.725+437.252L745.098+437.252L745.098+402.937C745.098+394.828+751.693+388.232+759.805+388.232ZM783.307+643.32C783.73+643.346+784.156+643.365+784.578+643.396C801.217+644.686+806.758+657.479+806.42+668.141C806.066+679.217+799.447+692.154+781.959+692.154L653.924+692.154C623.846+692.154+598.566+671.207+591.912+643.135L591.912+643.135L781.361+643.213C783.303+643.211+781.359+643.211+783.307+643.32ZM560.785+792.154L476.471+792.154L476.471+643.135L560.785+643.135L560.785+792.154ZM587.256+613.723L587.256+613.723L447.061+613.723L447.061+792.154L412.57+792.154L397.334+606.549C396.312+594.117+400.404+582.219+408.855+573.047C417.307+563.873+428.83+558.822+441.303+558.822L655.301+558.822L655.301+558.822C648.531+590.164+620.592+613.723+587.256+613.723ZM340.195+503.92L510.783+503.92C512.432+503.92+514.064+503.846+515.686+503.738L515.686+529.41L441.299+529.41C420.812+529.41+401.104+538.051+387.221+553.117C373.338+568.186+366.34+588.535+368.016+608.955L382.973+791.15L275.09+710.238L336.455+503.754C337.691+503.853+338.937+503.92+340.195+503.92ZM656.863+328.43L656.863+529.41L545.098+529.41L545.098+495.395C568.398+483.045+584.312+458.547+584.312+430.391L584.312+312.744C584.312+289.668+567.262+270.504+545.098+267.18L545.098+245.098L573.529+245.098C619.48+245.096+656.863+282.479+656.863+328.43ZM542.367+29.5566C605.043+32.6016+656.152+84.1113+658.719+146.828C659.369+162.715+657.051+178.15+651.818+192.838L602.941+192.838C600.67+192.838+598.437+192.666+596.26+192.332L595.107+192.127C593.818+191.896+592.555+191.607+591.311+191.271C591.244+191.254+591.18+191.234+591.113+191.215C589.939+190.891+588.785+190.52+587.656+190.105C587.475+190.039+587.297+189.963+587.115+189.893C586.271+189.57+585.445+189.215+584.629+188.844C584.123+188.613+583.623+188.373+583.129+188.123C582.576+187.846+582.033+187.557+581.496+187.258C580.463+186.682+579.455+186.068+578.475+185.412C578.41+185.369+578.344+185.33+578.281+185.287C575.353+183.305+572.676+180.98+570.303+178.373L570.301+178.371C569.369+177.346+568.484+176.275+567.652+175.166C567.631+175.137+567.607+175.109+567.586+175.08C566.379+173.465+565.283+171.76+564.303+169.986C564.035+169.5+563.779+169.008+563.529+168.512C563.219+167.896+562.924+167.273+562.641+166.643C562.361+166.014+562.094+165.377+561.842+164.734C561.68+164.318+561.52+163.902+561.369+163.482C561.066+162.631+560.793+161.768+560.541+160.893C560.459+160.604+560.373+160.318+560.297+160.027C560.027+159.012+559.799+157.982+559.603+156.941C559.557+156.695+559.514+156.443+559.471+156.195C559.285+155.104+559.131+154+559.027+152.883C559.01+152.705+559.002+152.525+558.986+152.348C558.889+151.15+558.826+149.941+558.826+148.723L558.826+107.844L435.928+107.844L435.928+107.844C453.193+56.0586+491.979+27.1289+542.367+29.5566ZM472.549+151.959C472.549+146.967+473.123+142.047+474.262+137.254L529.41+137.254L529.41+148.721C529.41+150.17+529.463+151.605+529.547+153.035C529.574+153.5+529.617+153.959+529.652+154.42C529.727+155.387+529.814+156.352+529.928+157.309C529.99+157.842+530.057+158.375+530.131+158.904C530.254+159.791+530.398+160.672+530.553+161.547C530.646+162.086+530.734+162.627+530.844+163.162C531.033+164.113+531.254+165.055+531.479+165.992C531.719+166.992+531.986+167.98+532.268+168.963C532.441+169.572+532.609+170.186+532.799+170.789C533.059+171.613+533.342+172.424+533.629+173.236C533.77+173.633+533.91+174.029+534.057+174.42C534.396+175.332+534.752+176.234+535.125+177.127C535.195+177.295+535.27+177.463+535.342+177.631C540.996+190.865+550.408+202.188+562.418+210.107C554.313+213.762+545.449+215.684+536.273+215.684C501.137+215.684+472.549+187.098+472.549+151.959ZM521.568+441.174L521.568+312.742C521.568+303.553+529.045+296.076+538.234+296.076C547.424+296.076+554.9+303.553+554.9+312.742L554.9+430.389C554.9+454.715+535.109+474.506+510.783+474.506L340.195+474.506C331.006+474.506+323.529+467.029+323.529+457.84C323.529+448.65+331.006+441.174+340.195+441.174L521.568+441.174ZM269.152+418.383L269.26+418.008C272.359+406.637+279.701+397.156+289.932+391.311C300.162+385.463+312.059+383.947+323.428+387.049L339.184+391.344L332.945+412.338C310.971+415.826+294.117+434.898+294.117+457.84C294.117+471.359+299.971+483.535+309.273+491.973L250+691.418L250+691.418L247.48+699.896L234.938+742.1C234.723+741.951+234.496+741.818+234.281+741.672C232.9+740.73+231.488+739.834+230.076+738.941C229.479+738.564+228.896+738.164+228.293+737.799C213.299+728.586+196.57+721.949+178.721+718.475L269.152+418.383ZM233.334+887.252C233.334+933.203+195.951+970.586+150+970.586C104.049+970.586+66.666+933.201+66.666+887.252C66.666+884.969+66.762+882.68+66.955+880.389L96.543+880.389C96.252+882.656+96.078+884.943+96.078+887.252C96.078+916.982+120.266+941.174+150+941.174C179.734+941.174+203.922+916.984+203.922+887.252C203.922+884.943+203.748+882.656+203.457+880.389L233.045+880.389C233.236+882.68+233.334+884.971+233.334+887.252ZM174.51+887.252C174.51+900.768+163.516+911.762+150+911.762C136.484+911.762+125.49+900.768+125.49+887.252C125.49+884.912+125.826+882.605+126.477+880.389L173.521+880.389C174.174+882.605+174.51+884.91+174.51+887.252ZM269.695+850.978L269.695+850.978L30.305+850.978L30.305+850.978L30.305+850.978C37.578+791.395+88.482+745.096+150+745.096C151.879+745.096+153.744+745.141+155.604+745.227L158.621+745.439C177.523+746.775+195.818+752.619+211.957+762.283C212.033+762.33+212.113+762.373+212.189+762.42C213.264+763.064+214.316+763.746+215.371+764.426C215.873+764.752+216.379+765.066+216.877+765.398C217.607+765.887+218.326+766.396+219.047+766.9C219.844+767.459+220.641+768.012+221.424+768.588C221.902+768.941+222.371+769.305+222.846+769.664C223.84+770.42+224.828+771.18+225.799+771.967C226.104+772.211+226.4+772.465+226.703+772.715C227.803+773.623+228.891+774.545+229.959+775.492C230.172+775.682+230.383+775.875+230.596+776.066C231.773+777.127+232.939+778.203+234.074+779.309C234.102+779.334+234.129+779.361+234.154+779.387C235.416+780.617+236.65+781.875+237.857+783.158C237.861+783.162+237.863+783.164+237.867+783.168C242.68+788.287+247.041+793.83+250.908+799.728C251.061+799.963+251.213+800.199+251.365+800.434C252.129+801.615+252.869+802.812+253.59+804.021C253.785+804.35+253.984+804.676+254.176+805.008C262.256+818.83+267.67+834.385+269.695+850.978L269.695+850.978ZM560.785+850.978L358.951+850.978L278.857+788.932C278.701+788.668+278.525+788.42+278.367+788.158C278.027+787.598+277.664+787.055+277.316+786.5C273.824+780.895+269.982+775.523+265.789+770.432C265.756+770.391+265.725+770.35+265.689+770.309C264.365+768.705+262.992+767.141+261.602+765.592C261.314+765.271+261.037+764.949+260.748+764.633C260.285+764.127+259.852+763.598+259.383+763.098L266.158+740.303L374.512+821.568L374.512+821.568L560.787+821.568L560.787+821.568L560.787+850.978L560.785+850.978ZM823.529+887.252C823.529+933.203+786.146+970.586+740.195+970.586C694.244+970.586+656.861+933.203+656.861+887.252C656.861+884.969+656.957+882.68+657.15+880.389L686.738+880.389C686.447+882.656+686.273+884.943+686.273+887.252C686.273+916.982+710.461+941.174+740.195+941.174C769.928+941.174+794.117+916.984+794.117+887.252C794.117+884.943+793.943+882.656+793.652+880.389L823.242+880.389C823.434+882.68+823.529+884.971+823.529+887.252ZM764.705+887.252C764.705+900.768+753.711+911.762+740.195+911.762C726.68+911.762+715.686+900.768+715.686+887.252C715.686+884.912+716.021+882.605+716.672+880.389L763.717+880.389C764.371+882.605+764.705+884.91+764.705+887.252ZM880.393+850.978L590.195+850.978L590.195+850.978L590.195+696.262C606.869+711.936+629.285+721.568+653.92+721.568L781.955+721.568C816.215+721.568+834.98+695.162+835.812+669.08C835.896+666.428+835.783+663.762+835.494+661.107C853.166+673.174+867.084+690.689+874.529+711.775C878.418+722.74+880.391+734.281+880.391+746.076L880.393+850.978M745.098+613.723L745.098+613.723L745.098+466.664L813.725+466.664L813.725+491.174L843.137+491.174L843.137+466.664L882.352+466.664L882.352+491.174L911.764+491.174L911.764+466.664L970.588+466.664L970.588+613.723L745.098+613.723Z" opacity="1" fill="#000000"/>
<path d="M942.156+703.922L999.02+703.922L999.02+703.922L999.02+733.334L999.02+733.334L942.156+733.334L942.156+733.334L942.156+703.922L942.156+703.922Z" opacity="1" fill="#000000"/>
<path d="M942.156+777.451L999.02+777.451L999.02+777.451L999.02+806.863L999.02+806.863L942.156+806.863L942.156+806.863L942.156+777.451L942.156+777.451Z" opacity="1" fill="#000000"/>
<path d="M942.156+850.98L999.02+850.98L999.02+850.98L999.02+880.393L999.02+880.393L942.156+880.393L942.156+880.393L942.156+850.98L942.156+850.98Z" opacity="1" fill="#000000"/>
<g opacity="1">
<path d="M110.59+818.168L91.787+795.551C108.113+781.98+128.787+774.508+149.998+774.508L149.998+803.92C135.641+803.92+121.645+808.98+110.59+818.168Z" opacity="1" fill="#ffffff"/>
<path d="M748.039+821.566L718.627+821.566L718.627+792.154L748.039+792.154L748.039+821.566ZM689.215+821.566L619.607+821.566L619.607+748.037L649.02+748.037L649.02+792.154L689.215+792.154L689.215+821.566Z" opacity="1" fill="#ffffff"/>
<path d="M821.568+746.078L850.98+746.078L850.98+746.078L850.98+791.176L850.98+791.176L821.568+791.176L821.568+791.176L821.568+746.078L821.568+746.078Z" opacity="1" fill="#ffffff"/>
<path d="M605.883+448.039L635.295+448.039L635.295+448.039L635.295+504.902L635.295+504.902L605.883+504.902L605.883+504.902L605.883+448.039L605.883+448.039Z" opacity="1" fill="#ffffff"/>
<path d="M941.176+584.311L877.451+584.311L877.451+554.898L911.766+554.898L911.766+520.586L941.176+520.586L941.176+584.311Z" opacity="1" fill="#ffffff"/>
<path d="M599.959+149.547L599.943+149.23C599.502+138.461+596.223+127.871+590.455+118.607L615.426+103.066C623.844+116.594+628.646+132.082+629.322+147.865L629.336+148.23L614.295+148.732L599.959+149.547Z" opacity="1" fill="#ffffff"/>
<path d="M497.059+58.8203L563.725+58.8203L563.725+58.8203L563.725+88.2324L563.725+88.2324L497.059+88.2324L497.059+88.2324L497.059+58.8203L497.059+58.8203Z" opacity="1" fill="#ffffff"/>
</g>
</g>
</svg>
