<?xml version="1.0"?>
<svg xmlns="http://www.w3.org/2000/svg" xmlns:xlink="http://www.w3.org/1999/xlink" xmlns:svgjs="http://svgjs.com/svgjs" version="1.1" width="512" height="512" x="0" y="0" viewBox="0 0 511.951 511.951" style="enable-background:new 0 0 512 512" xml:space="preserve" class=""><g><script/>
<path xmlns="http://www.w3.org/2000/svg" style="" d="M412.179,417.274v51.287c0,23.951-69.944,43.39-156.203,43.39s-156.203-19.439-156.203-43.39v-54.932  L412.179,417.274z" fill="#404040" data-original="#bdc3c7" class=""/>
<path xmlns="http://www.w3.org/2000/svg" style="" d="M498.959,242.933c0,0-0.174,7.637-0.174,8.678C493.925,376.834,387.1,468.56,255.976,468.56  c-127.653,0-232.309-94.937-242.202-215.561c-0.347-3.905-0.781-10.066-0.781-10.066H498.959z" fill="#444444" data-original="#d1d4d1" class=""/>
<g xmlns="http://www.w3.org/2000/svg">
	<path style="" d="M186.552,430.993c-0.958,0-1.909-0.161-2.814-0.475c-42.62-14.606-79.723-41.954-106.288-78.343   c-1.838-2.514-2.189-5.819-0.919-8.663c1.27-2.843,3.966-4.788,7.065-5.096s6.125,1.068,7.93,3.606   c24.458,33.483,58.611,58.645,97.839,72.08c4.012,1.377,6.441,5.452,5.744,9.636C194.412,427.923,190.794,430.99,186.552,430.993   L186.552,430.993z" fill="#eeeeee" data-original="#ecf0f1" class=""/>
	<path style="" d="M64.425,321.031c-3.422,0-6.524-2.009-7.924-5.131c-2.644-5.907-5.025-11.987-7.076-18.072   c-1.529-4.542,0.913-9.464,5.456-10.994s9.464,0.913,10.994,5.456c1.873,5.559,4.047,11.114,6.466,16.513   c1.199,2.685,0.958,5.794-0.64,8.262C70.103,319.532,67.365,321.025,64.425,321.031L64.425,321.031z" fill="#eeeeee" data-original="#ecf0f1" class=""/>
</g>
<g xmlns="http://www.w3.org/2000/svg">
	<path style="" d="M316.221,147.476c-2.302,0.003-4.51-0.912-6.135-2.543c-9.766-9.638-15.263-22.787-15.263-36.508   s5.497-26.87,15.263-36.508c12.924-12.924,5.174-34.623-8.678-48.475c-3.343-3.396-3.322-8.853,0.048-12.223   s8.827-3.391,12.223-0.048c19.801,19.801,29.572,52.123,8.678,73.017c-6.51,6.384-10.178,15.119-10.178,24.237   s3.668,17.853,10.178,24.237c2.481,2.482,3.223,6.214,1.88,9.456C322.894,145.361,319.731,147.475,316.221,147.476L316.221,147.476   z" fill="#444444" data-original="#e6e7e8" class=""/>
	<path style="" d="M220.764,190.865c-2.302,0.003-4.51-0.912-6.135-2.543c-9.766-9.638-15.263-22.787-15.263-36.508   s5.497-26.87,15.263-36.508c12.924-12.924,5.174-34.623-8.678-48.475c-3.344-3.396-3.322-8.853,0.048-12.223   c3.37-3.37,8.827-3.391,12.223-0.048c19.801,19.801,29.572,52.123,8.678,73.017c-6.51,6.384-10.178,15.119-10.178,24.237   s3.668,17.853,10.178,24.237c2.481,2.482,3.223,6.214,1.88,9.456C227.437,188.75,224.273,190.865,220.764,190.865L220.764,190.865z   " fill="#444444" data-original="#e6e7e8" class=""/>
	<path style="" d="M129.848,138.798c-2.302,0.003-4.51-0.912-6.135-2.543c-9.766-9.638-15.263-22.787-15.263-36.508   s5.497-26.87,15.263-36.508c12.924-12.924,5.174-34.623-8.678-48.475c-3.343-3.396-3.322-8.853,0.048-12.223   c3.37-3.37,8.827-3.391,12.223-0.048c19.801,19.801,29.572,52.123,8.678,73.017c-6.51,6.384-10.178,15.119-10.178,24.237   s3.668,17.853,10.178,24.237c2.481,2.482,3.223,6.214,1.88,9.456C136.522,136.683,133.358,138.797,129.848,138.798L129.848,138.798   z" fill="#444444" data-original="#e6e7e8" class=""/>
</g>
<path xmlns="http://www.w3.org/2000/svg" style="" d="M404.369,222.366c57.535,4.686,94.59,12.149,94.59,20.567s-37.315,15.881-95.197,20.654  c-13.451,1.128-27.943,2.083-43.39,2.864c-31.675,1.562-66.994,2.517-104.396,2.517c-134.161,0-242.983-11.628-242.983-26.034  c0-14.405,108.822-26.034,242.983-26.034c37.836,0,73.763,0.955,105.698,2.603L404.369,222.366z" fill="#404040" data-original="#bdc3c7" class=""/>
<path xmlns="http://www.w3.org/2000/svg" style="" d="M360.111,266.451c0.087-6.422,0.434-24.212,1.909-46.948c3.124-46.427,11.281-113.508,32.803-145.703  c20.338-28.588,48.39-50.8,80.879-64.043c3.705-1.559,7.892-1.499,11.551,0.166c3.658,1.664,6.455,4.782,7.714,8.599  c0.519,1.478,0.783,3.033,0.781,4.599c0.007,5.269-2.898,10.11-7.55,12.583c-18.31,9.719-54.584,32.195-67.341,64.13  c-10.414,26.121-14.579,82.094-16.315,122.533c-0.694,18.397-0.955,33.497-1.041,41.22" fill="#424242" data-original="#5e5f62" class=""/>
<g xmlns="http://www.w3.org/2000/svg">
</g>
<g xmlns="http://www.w3.org/2000/svg">
</g>
<g xmlns="http://www.w3.org/2000/svg">
</g>
<g xmlns="http://www.w3.org/2000/svg">
</g>
<g xmlns="http://www.w3.org/2000/svg">
</g>
<g xmlns="http://www.w3.org/2000/svg">
</g>
<g xmlns="http://www.w3.org/2000/svg">
</g>
<g xmlns="http://www.w3.org/2000/svg">
</g>
<g xmlns="http://www.w3.org/2000/svg">
</g>
<g xmlns="http://www.w3.org/2000/svg">
</g>
<g xmlns="http://www.w3.org/2000/svg">
</g>
<g xmlns="http://www.w3.org/2000/svg">
</g>
<g xmlns="http://www.w3.org/2000/svg">
</g>
<g xmlns="http://www.w3.org/2000/svg">
</g>
<g xmlns="http://www.w3.org/2000/svg">
</g>
</g></svg>
