<?xml version="1.0"?>
<svg xmlns="http://www.w3.org/2000/svg" xmlns:xlink="http://www.w3.org/1999/xlink" xmlns:svgjs="http://svgjs.com/svgjs" version="1.1" width="512" height="512" x="0" y="0" viewBox="0 0 64 64" style="enable-background:new 0 0 512 512" xml:space="preserve" class=""><g><script/><g xmlns="http://www.w3.org/2000/svg"><path d="m43 41h-6l-5 6-5-6h-6c-4.971 0-9 4.029-9 9v12h40v-12c0-4.971-4.029-9-9-9z" fill="#333333" data-original="#c7e2fb" style="" class=""/><path d="m21.5 60c12.182 0 22.637-7.009 27.138-17.01-1.543-1.243-3.502-1.99-5.638-1.99h-6l-5 6-5-6h-6c-4.971 0-9 4.029-9 9v8.508c2.982.962 6.175 1.492 9.5 1.492z" fill="#444444" data-original="#ebf7fe" style="" class=""/><path d="m32 47-5-6h-4l3 9z" fill="#444444" data-original="#4472b0" style="" class=""/><g><path d="m32 47-2.8 1.4 1.8 3.6h2l1.8-3.6z" fill="#444444" data-original="#2d4d81" style="" class=""/></g><path d="m32 47 5-6h4l-3 9z" fill="#444444" data-original="#4472b0" style="" class=""/><path d="m35 62-2-10h-2l-2 10z" fill="#444444" data-original="#4472b0" style="" class=""/><path d="m41 24v6c0 4.971-4.029 9-9 9-4.971 0-9-4.029-9-9v-6h6c1.889 0 3.667-.889 4.8-2.4l1.2-1.6 1.2 1.6c1.133 1.511 2.911 2.4 4.8 2.4z" fill="#ffffff" data-original="#efbe9c" style="" class=""/><path d="m23 30v-5h-1c-1.657 0-3 1.343-3 3s1.343 3 3 3h1.059c-.037-.329-.059-.662-.059-1z" fill="#ffffff" data-original="#efbe9c" style="" class=""/><path d="m32 10c-6.627 0-12 5.373-12 12v3.779c.532-.479 1.228-.779 2-.779h1v-1h6c1.889 0 3.667-.889 4.8-2.4l1.2-1.6 1.2 1.6c1.133 1.511 2.911 2.4 4.8 2.4v1h1c.772 0 1.468.3 2 .779v-3.779c0-6.627-5.373-12-12-12z" fill="#444444" data-original="#976949" style="" class=""/><path d="m42 25h-1v5c0 .338-.022.671-.059 1h1.059c1.657 0 3-1.343 3-3s-1.343-3-3-3z" fill="#ffffff" data-original="#efbe9c" style="" class=""/><path d="m32 39c-1.851 0-3.57-.56-5-1.518v3.518l5 6 5-6v-3.518c-1.43.958-3.149 1.518-5 1.518z" fill="#ffffff" data-original="#efbe9c" style="" class=""/><path d="m42 12 2-10-7 4-5-4-5 4-7-4 2 10z" fill="#ffffff" data-original="#f9d18f" style="" class=""/><path d="m22 12h20v4h-20z" fill="#eeeeee" data-original="#f5b95b" style="" class=""/><g><path d="m43 40h-5v-2h-.026c1.928-1.443 3.326-3.557 3.824-6h.202c2.206 0 4-1.794 4-4 0-1.006-.385-1.915-1-2.618v-3.382c0-2.464-.696-4.842-2-6.913v-2.989l1.98-9.902c.077-.385-.078-.778-.396-1.008-.318-.229-.741-.251-1.081-.057l-6.41 3.663-4.469-3.576c-.365-.291-.885-.291-1.25 0l-4.469 3.576-6.41-3.663c-.34-.194-.764-.173-1.081.057s-.473.623-.396 1.008l1.982 9.903v2.984c-1.305 2.072-2 4.454-2 6.917v3.382c-.615.703-1 1.612-1 2.618 0 2.206 1.794 4 4 4h.202c.498 2.443 1.896 4.557 3.824 6h-.026v2h-5c-5.514 0-10 4.486-10 10v12c0 .553.447 1 1 1h40c.553 0 1-.447 1-1v-12c0-5.514-4.486-10-10-10zm-16.469 2 3.892 4.67-3.839 1.919-2.197-6.589zm5.289 11h.361l1.6 8h-3.561zm.562-2h-.764l-1.076-2.153 1.458-.729 1.458.729zm1.195-4.33 3.892-4.67h2.144l-2.197 6.59zm8.423-16.67v-4c1.103 0 2 .897 2 2s-.897 2-2 2zm-15.496-23.132c.355.203.801.169 1.121-.087l4.375-3.501 4.375 3.501c.32.255.766.289 1.121.087l5.093-2.91-1.409 7.042h-18.36l-1.409-7.042zm14.496 6.132v2h-18v-2zm-21 15c0-1.103.897-2 2-2v4c-1.103 0-2-.897-2-2zm2-4c-.347 0-.678.058-1 .142v-2.142c0-1.754.419-3.459 1.208-5h19.585c.788 1.541 1.207 3.244 1.207 5v2.142c-.322-.084-.653-.142-1-.142 0-.553-.447-1-1-1-1.565 0-3.061-.748-4-2.001l-1.2-1.6c-.377-.502-1.223-.502-1.6 0l-1.2 1.601c-.939 1.252-2.435 2-4 2h-6c-.553 0-1 .447-1 1zm2 6v-5h5c2.191 0 4.285-1.047 5.6-2.8l.4-.534.4.533c1.113 1.484 2.783 2.463 4.6 2.728v5.073c0 4.411-3.589 8-8 8s-8-3.589-8-8zm8 10c1.422 0 2.774-.303 4-.841v1.479l-4 4.8-4-4.8v-1.479c1.226.538 2.578.841 4 .841zm-19 10c0-4.411 3.589-8 8-8h1.28l2.772 8.316c.091.274.298.496.565.607.123.052.253.077.383.077.153 0 .307-.035.447-.105l2.305-1.153 1.199 2.399-1.771 8.859h-9.18v-6h-2v6h-4zm38 11h-4v-6h-2v6h-9.18l-1.772-8.859 1.199-2.399 2.305 1.153c.141.07.295.105.448.105.13 0 .26-.025.383-.076.268-.111.475-.333.565-.607l2.772-8.317h1.28c4.411 0 8 3.589 8 8z" fill="#222222" data-original="#000000" style="" class=""/><path d="m31 7h2v2h-2z" fill="#222222" data-original="#000000" style="" class=""/></g></g></g></svg>
